HIERARCHY
ROOT Hips
{
    OFFSET 0.000000 0.000000 0.000000
    CHANNELS 6 Xposition Yposition Zposition Zrotation Xrotation Yrotation
    JOINT Spine
    {
        OFFSET -0.000000 7.925200 0.000000
        CHANNELS 3 Zrotation Xrotation Yrotation
        JOINT Spine1
        {
            OFFSET -0.000000 23.364719 0.000000
            CHANNELS 3 Zrotation Xrotation Yrotation
            JOINT Neck
            {
                OFFSET -0.000000 23.268766 2.115342
                CHANNELS 3 Zrotation Xrotation Yrotation
                JOINT Head
                {
                    OFFSET -0.000000 13.530829 -1.932976
                    CHANNELS 3 Zrotation Xrotation Yrotation
                    End Site
                    {
                        OFFSET -0.000000 24.162195 0.000000
                    }
                }
            }
            JOINT LeftShoulder
            {
                OFFSET 3.858291 22.792089 -0.033814
                CHANNELS 3 Zrotation Xrotation Yrotation
                JOINT LeftArm
                {
                    OFFSET 7.057024 0.000000 0.000000
                    CHANNELS 3 Zrotation Xrotation Yrotation
                    JOINT LeftForeArm
                    {
                        OFFSET 34.734173 0.000000 0.000000
                        CHANNELS 3 Zrotation Xrotation Yrotation
                        JOINT LeftHand
                        {
                            OFFSET 23.943203 0.000000 0.000000
                            CHANNELS 3 Zrotation Xrotation Yrotation
                            End Site
                            {
                                OFFSET 14.497317 0.000000 0.000000
                            }
                        }
                    }
                }
            }
            JOINT RightShoulder
            {
                OFFSET -3.868823 22.792089 -0.033814
                CHANNELS 3 Zrotation Xrotation Yrotation
                JOINT RightArm
                {
                    OFFSET -7.057024 0.000000 0.000000
                    CHANNELS 3 Zrotation Xrotation Yrotation
                    JOINT RightForeArm
                    {
                        OFFSET -34.734173 0.000000 0.000000
                        CHANNELS 3 Zrotation Xrotation Yrotation
                        JOINT RightHand
                        {
                            OFFSET -23.943203 0.000000 0.000000
                            CHANNELS 3 Zrotation Xrotation Yrotation
                            End Site
                            {
                                OFFSET -14.497317 0.000000 0.000000
                            }
                        }
                    }
                }
            }
        }
    }
    JOINT LeftUpLeg
    {
        OFFSET 9.664878 0.000000 0.000000
        CHANNELS 3 Zrotation Xrotation Yrotation
        JOINT LeftLeg
        {
            OFFSET -0.000000 -38.728706 0.000000
            CHANNELS 3 Zrotation Xrotation Yrotation
            JOINT LeftFoot
            {
                OFFSET -0.000000 -40.242161 0.000000
                CHANNELS 3 Zrotation Xrotation Yrotation
                JOINT LeftToeBase
                {
                    OFFSET -0.000000 -6.282171 14.497317
                    CHANNELS 3 Zrotation Xrotation Yrotation
                    End Site
                    {
                        OFFSET -0.000000 0.000000 3.865951
                    }
                }
            }
        }
    }
    JOINT RightUpLeg
    {
        OFFSET -9.664878 0.000000 0.000000
        CHANNELS 3 Zrotation Xrotation Yrotation
        JOINT RightLeg
        {
            OFFSET -0.000000 -38.728706 0.000000
            CHANNELS 3 Zrotation Xrotation Yrotation
            JOINT RightFoot
            {
                OFFSET -0.000000 -40.242161 0.000000
                CHANNELS 3 Zrotation Xrotation Yrotation
                JOINT RightToeBase
                {
                    OFFSET -0.000000 -6.282171 14.497317
                    CHANNELS 3 Zrotation Xrotation Yrotation
                    End Site
                    {
                        OFFSET -0.000000 0.000000 3.865951
                    }
                }
            }
        }
    }
}
MOTION
Frames:    8
Frame Time:    0.008333
-5.382996    88.593086    30.974289    -2.750703    -1.851151    90.383209    0.249758    -6.569874    -1.054018    1.863064    7.012293    -1.182531    -2.092075    13.457192    7.570176    -3.308591    -2.652724    7.389017    5.156639    2.576796    4.146427    -24.269531    30.077963    -8.744116    12.045671    -3.412848    -18.409883    -5.344852    -0.860721    -12.688167    -5.223996    3.780339    3.501047    29.017904    28.351786    10.922819    -2.342000    -5.368352    9.765611    4.243440    -5.046884    3.311066    5.704771    2.494976    2.116972    -3.626009    -1.559977    -1.708623    -0.878814    -5.048323    4.019519    0.000000    0.000000    0.000000    4.405802    0.124564    -2.305231    -1.760098    1.557599    0.254823    -1.627740    -3.920509    -8.488884    0.000000    0.000000    0.000000    
-5.394693    88.596916    30.909031    -2.726335    -1.889689    90.321014    0.176739    -6.633563    -1.006966    1.979967    7.120338    -1.140380    -2.151690    13.505699    7.533317    -3.179082    -2.724832    7.370536    5.409152    2.460143    4.089789    -23.645939    29.169502    -8.700349    12.053681    -3.606163    -18.097065    -4.971611    -1.163926    -11.881584    -5.448991    3.602717    3.480537    28.470978    27.245178    10.620337    -2.140115    -5.556566    9.636782    3.094713    -5.303492    2.731469    5.694363    2.533809    2.121450    -3.623783    -1.572826    -1.701302    -0.780905    -5.050726    4.063190    0.000000    0.000000    0.000000    4.413450    0.138574    -2.295405    -1.786348    1.535907    0.196660    -1.515531    -3.900107    -8.401977    0.000000    0.000000    0.000000    
-5.402551    88.597610    30.838001    -2.679631    -1.935646    90.244209    0.206380    -6.564328    -0.976836    1.966068    7.007372    -1.109072    -2.248893    13.736680    7.458018    -3.031675    -2.929747    7.308730    5.652035    2.409947    4.047043    -23.002319    28.079885    -8.554911    12.022407    -3.568886    -17.817980    -5.145474    -1.146839    -11.811076    -5.637249    3.520427    3.541140    27.945471    26.209194    10.331054    -2.182727    -5.417259    9.333380    2.756498    -5.170419    2.896399    5.690453    2.617842    2.121676    -3.632250    -1.609611    -1.734874    -0.705966    -5.064816    4.165511    0.000000    0.000000    0.000000    4.414371    0.173987    -2.282900    -1.789808    1.523940    0.184584    -1.402726    -3.892676    -8.358494    0.000000    0.000000    0.000000    
-5.406493    88.596306    30.766912    -2.631921    -1.970800    90.168121    0.225998    -6.520628    -0.938319    1.943265    6.935573    -1.068973    -2.154682    13.764832    7.433767    -3.117173    -2.761716    7.270937    5.925077    2.322710    3.938193    -22.379713    27.038153    -8.419373    12.094300    -3.180475    -17.162231    -5.763618    -0.725332    -12.363811    -5.783749    3.458181    3.600982    27.416256    25.103603    10.026684    -2.266142    -5.393419    9.119044    2.562197    -5.157866    2.496174    5.671592    2.716220    2.112451    -3.626543    -1.685481    -1.674834    -0.622902    -5.059596    4.168882    0.000000    0.000000    0.000000    4.404652    0.215844    -2.260596    -1.797482    1.513365    0.141497    -1.266726    -3.906010    -8.286551    0.000000    0.000000    0.000000    
-5.416077    88.596703    30.702555    -2.598112    -2.024815    90.108032    0.275762    -6.464303    -0.947581    1.941434    6.823842    -1.078978    -2.217359    13.923118    7.455652    -3.105303    -2.776566    7.293469    6.102933    2.222667    3.923134    -21.773262    26.042171    -8.199050    12.013590    -3.002112    -16.976740    -4.808274    -0.706447    -11.804502    -5.981582    3.426203    3.633074    26.802362    24.081535    9.924096    -2.220372    -5.297998    8.782620    2.336280    -5.076415    2.548309    5.688571    2.791563    2.099696    -3.644912    -1.746697    -1.696283    -0.574150    -5.071178    4.260760    0.000000    0.000000    0.000000    4.420330    0.238910    -2.216910    -1.810441    1.510594    0.136205    -1.156403    -3.913317    -8.296340    0.000000    0.000000    0.000000    
-5.418012    88.597588    30.636358    -2.566449    -2.060299    90.026062    0.303479    -6.420833    -0.986388    1.982168    6.708248    -1.119620    -2.331039    14.186122    7.534076    -3.174771    -2.955957    7.355510    6.235990    2.106237    3.968504    -21.127420    25.124731    -7.999914    11.917334    -2.910678    -16.521294    -5.235466    -0.621837    -12.061522    -6.371392    3.517276    3.880564    26.418278    22.971430    9.754514    -2.733712    -4.918865    8.238493    4.337958    -4.580735    3.758518    5.678307    2.891824    2.109963    -3.650214    -1.845649    -1.656600    -0.513955    -5.060577    4.269276    0.000000    0.000000    0.000000    4.411117    0.272512    -2.185097    -1.812102    1.491864    0.099331    -1.035157    -3.917270    -8.238644    0.000000    0.000000    0.000000    
-5.429904    88.602303    30.566792    -2.554136    -2.088567    89.935387    0.216580    -6.454128    -0.931341    2.152834    6.736587    -1.070289    -2.424756    14.210258    7.508250    -3.078314    -2.869973    7.348274    6.458744    2.056139    3.845974    -20.597059    24.286798    -7.923198    11.940593    -2.988673    -16.017302    -4.925520    -0.785553    -12.006727    -6.632271    3.413044    3.867166    25.811579    22.119293    9.603971    -2.725672    -4.940869    7.841239    3.657294    -4.634894    3.764299    5.654115    2.976057    2.094065    -3.647603    -1.956691    -1.575732    -0.518478    -5.025628    4.287627    0.000000    0.000000    0.000000    4.391706    0.273698    -2.120977    -1.808857    1.493778    0.133982    -0.911765    -3.916171    -8.286155    0.000000    0.000000    0.000000    
-5.430066    88.600716    30.499220    -2.522892    -2.105841    89.874153    0.187706    -6.429026    -0.936943    2.223752    6.660933    -1.076911    -2.378863    14.327216    7.522155    -3.273939    -2.800476    7.328719    6.672914    1.934202    3.828008    -20.087053    23.294428    -7.730090    11.853668    -2.960308    -15.768668    -4.960826    -0.790595    -12.040254    -6.879881    3.312439    3.932529    25.249701    20.984209    9.395437    -2.506843    -4.695677    7.806130    2.168915    -4.474353    2.694037    5.621294    3.086903    2.093369    -3.641765    -2.081328    -1.538957    -0.464005    -5.004337    4.287650    0.000000    0.000000    0.000000    4.362998    0.320831    -2.053349    -1.808905    1.462422    0.094357    -0.853209    -3.926277    -8.261728    0.000000    0.000000    0.000000    
